<svg width="228" height="71" viewBox="0 0 228 71" fill="none" xmlns="http://www.w3.org/2000/svg">
<path d="M10.1869 26.602C10.2525 26.9061 10.3991 27.2506 10.6268 27.6356C10.8653 28.0037 11.2619 28.3666 11.8165 28.7244C12.7408 29.3208 13.6573 29.5788 14.5659 29.4986C15.5021 29.4124 16.2468 28.9408 16.7997 28.0837C17.2009 27.4619 17.3354 26.8108 17.2031 26.1304C17.0876 25.4609 16.8412 24.7545 16.4639 24.0112C16.0866 23.268 15.6618 22.506 15.1897 21.7253C14.7283 20.9279 14.3469 20.0987 14.0455 19.2378C13.7441 18.3769 13.5977 17.497 13.6064 16.5981C13.6427 15.6933 13.9699 14.762 14.588 13.804C15.1192 12.9805 15.7313 12.3639 16.4242 11.954C17.117 11.5442 17.8486 11.3141 18.619 11.2637C19.417 11.2073 20.2369 11.3198 21.0789 11.6011C21.9316 11.8657 22.7781 12.2691 23.6184 12.8112C24.6436 13.4726 25.5443 14.1608 26.3207 14.8759C27.1246 15.585 27.782 16.3185 28.2926 17.0764C28.059 17.4017 27.776 17.7665 27.4437 18.171C27.1281 18.5862 26.7958 18.9906 26.4467 19.3842C26.1084 19.761 25.7725 20.1156 25.4391 20.4479C25.1334 20.7742 24.8655 21.0418 24.6357 21.2505L23.6021 20.5837L24.6707 16.3819C24.5341 16.151 24.2912 15.8634 23.9421 15.5191C23.6098 15.1857 23.2335 14.8835 22.8134 14.6124C22.1075 14.157 21.3916 13.957 20.6657 14.0123C19.9398 14.0675 19.3492 14.4481 18.8938 15.154C18.4818 15.7926 18.3311 16.4689 18.4416 17.1829C18.5631 17.88 18.807 18.6087 19.1735 19.3687C19.54 20.1288 19.9569 20.9214 20.4242 21.7465C20.9191 22.5657 21.3173 23.4057 21.6187 24.2666C21.9201 25.1275 22.0665 26.0074 22.0578 26.9062C22.06 27.7882 21.7629 28.6914 21.1666 29.6158C20.0823 31.2963 18.6706 32.2301 16.9314 32.4172C15.2199 32.5982 13.2634 31.9786 11.0618 30.5582C10.5241 30.2112 9.99955 29.8252 9.48833 29.4002C8.99392 28.986 8.54097 28.5629 8.1295 28.1308C7.71803 27.6987 7.3624 27.2907 7.0626 26.9069C6.77961 26.5339 6.59448 26.2122 6.5072 25.9417C6.77339 25.566 7.08105 25.1813 7.43018 24.7877C7.79015 24.3774 8.14471 23.9754 8.49384 23.5818C8.87062 23.1822 9.23114 22.8079 9.57539 22.4588C9.91964 22.1097 10.2314 21.8109 10.5106 21.5627L11.5441 22.2295L10.1869 26.602Z" fill="#FF8A00"/>
<path d="M43.6063 24.2426L50.8786 27.6711L50.3925 28.7023C49.9912 28.7563 49.5574 28.7618 49.0912 28.7189C48.6335 28.6579 48.229 28.5778 47.8778 28.4786L39.639 32.5876C39.7821 33.3627 39.9593 34.2532 40.1704 35.2593C40.3901 36.2473 40.6288 37.2886 40.8868 38.3831C41.1532 39.4595 41.4292 40.5625 41.7148 41.6921C42.0088 42.8036 42.3019 43.8704 42.5939 44.8926L43.5254 46.2936L43.0905 47.2162L38.3689 44.9902L37.6417 43.7187C37.4633 42.9713 37.2835 42.1568 37.1021 41.2753C36.9473 40.3842 36.801 39.475 36.6633 38.5478C36.5341 37.6024 36.4139 36.6613 36.3028 35.7245C36.1917 34.7877 36.0991 33.8817 36.0252 33.0066L34.8584 32.4565L31.5195 39.5389C31.8834 39.7989 32.194 40.0781 32.4514 40.3763C32.7088 40.6745 32.9167 40.9605 33.0751 41.2342L32.589 42.2653L24.3669 38.3891L24.853 37.3579C25.3001 37.3476 25.7435 37.3687 26.1831 37.4211C26.6312 37.4555 27.0532 37.5218 27.4491 37.62L34.6899 22.2613C34.2994 22.0108 33.9393 21.7194 33.6095 21.3871C33.2978 21.0633 33.0399 20.7427 32.8358 20.4253L33.3219 19.3941L41.544 23.2704L41.0579 24.3015C40.7545 24.3354 40.3968 24.3437 39.9848 24.3263C39.591 24.3175 39.1828 24.2688 38.7602 24.1802L35.5108 31.0726L37.291 31.4475L44.7301 26.9946C44.4024 26.7517 44.0917 26.4726 43.7982 26.1573C43.5312 25.8324 43.3052 25.5379 43.1202 25.2738L43.6063 24.2426Z" fill="#FF8A00"/>
<path d="M67.9766 33.3531L75.0041 35.5062L74.6702 36.5962C74.3306 36.6804 73.9528 36.7529 73.5367 36.8137C73.1457 36.8612 72.7597 36.858 72.3788 36.8041L63.8261 44.8517L61.84 51.3343C62.2107 51.4897 62.5514 51.7091 62.862 51.9926C63.1976 52.2627 63.4986 52.5432 63.7651 52.834L63.4312 53.924L54.5965 51.2173L54.9305 50.1273C55.3083 50.0548 55.7214 50.0036 56.1699 49.9736C56.6183 49.9437 57.0742 49.9578 57.5374 50.0161L59.5147 43.5622L56.7173 32.0058C56.3009 31.7945 55.9154 31.5509 55.5607 31.2749C55.2251 31.0047 54.9211 30.7338 54.6488 30.4621L54.9827 29.3721L64.3911 32.2546L64.0571 33.3446C63.7425 33.4156 63.3897 33.4748 62.9986 33.5223C62.6076 33.5698 62.1679 33.5711 61.6797 33.5261L63.4262 42.4701L69.6825 35.978C69.272 35.7476 68.8893 35.4944 68.5346 35.2184C68.1799 34.9424 67.8826 34.684 67.6426 34.4431L67.9766 33.3531Z" fill="#FF8A00"/>
<path d="M88.8605 59.4118L88.9467 58.275C89.3009 58.1013 89.6926 57.9605 90.122 57.8527C90.5529 57.7249 91.0007 57.6385 91.4655 57.5935L92.7492 40.6621C92.2981 40.5276 91.8584 40.3739 91.4303 40.2011C91.0236 40.0098 90.6675 39.8123 90.362 39.6086L90.4482 38.4719L93.9182 38.735C94.2573 38.7607 94.6768 38.7825 95.1769 38.8003C95.677 38.8182 96.197 38.8376 96.737 38.8584C97.2785 38.8594 97.7992 38.8688 98.2993 38.8866C98.8209 38.8861 99.2611 38.8994 99.6201 38.9266C101.355 39.0582 102.883 39.4047 104.205 39.9662C105.546 40.5292 106.652 41.285 107.523 42.2335C108.413 43.1836 109.059 44.3257 109.459 45.6597C109.879 46.9953 110.025 48.5107 109.897 50.2058C109.771 51.8611 109.418 53.3486 108.836 54.6684C108.255 55.9883 107.449 57.0905 106.419 57.9752C105.39 58.8599 104.116 59.5155 102.6 59.942C101.105 60.3502 99.3699 60.4794 97.3956 60.3297C97.1363 60.31 96.7888 60.2636 96.3531 60.1905C95.9159 60.1373 95.4495 60.0718 94.9539 59.9941C94.4569 59.9364 93.9606 59.8687 93.465 59.791C92.968 59.7332 92.53 59.69 92.1511 59.6613L88.8605 59.4118ZM99.0838 40.8415C98.7248 40.8143 98.3651 40.7971 98.0046 40.7898C97.6441 40.7825 97.3327 40.789 97.0704 40.8092L95.7572 58.1295C95.8355 58.1555 95.9736 58.186 96.1715 58.2211C96.3709 58.2362 96.5696 58.2613 96.7675 58.2964C96.9869 58.313 97.1955 58.3389 97.3934 58.3739C97.5928 58.389 97.7424 58.4004 97.8421 58.4079C98.9988 58.4956 99.9942 58.3304 100.828 57.9123C101.682 57.4956 102.399 56.8982 102.98 56.1198C103.56 55.3415 104.012 54.413 104.334 53.3343C104.657 52.2555 104.865 51.098 104.959 49.8615C105.042 48.7647 104.992 47.6979 104.81 46.6611C104.648 45.6259 104.338 44.6898 103.88 43.8528C103.422 43.0157 102.792 42.3262 101.991 41.784C101.209 41.2434 100.24 40.9292 99.0838 40.8415Z" fill="#FF8A00"/>
<path d="M126.833 60.3798L117.483 60.8097L117.43 59.6709C118.209 59.1947 119.005 58.8678 119.818 58.6902L119.038 41.7282C118.636 41.6866 118.211 41.596 117.764 41.4564C117.317 41.3168 116.919 41.1549 116.571 40.9707L116.518 39.8319L125.868 39.402L125.921 40.5408C125.571 40.7771 125.18 40.9853 124.748 41.1653C124.335 41.3244 123.93 41.4432 123.533 41.5215L124.313 58.4836C124.716 58.5451 125.131 58.6362 125.557 58.7567C126.003 58.8764 126.411 59.0378 126.781 59.241L126.833 60.3798Z" fill="#FF8A00"/>
<path d="M147.475 38.5127C146.985 38.4942 146.51 38.4427 146.049 38.3583C145.608 38.2706 145.207 38.1762 144.845 38.0752L144.655 36.9512L152.168 35.6803L152.358 36.8043C152.148 37.0021 151.86 37.2132 151.492 37.4377C151.144 37.6588 150.771 37.8537 150.374 38.0224L146.738 57.8972L143.869 58.7475L133.01 40.9594C132.599 40.9275 132.185 40.8759 131.767 40.8046C131.346 40.7136 130.973 40.6043 130.647 40.4769L130.457 39.3529L140.307 37.6867L140.497 38.8107C140.188 39.0252 139.84 39.2463 139.453 39.4741C139.065 39.7019 138.653 39.9035 138.216 40.0788L144.329 51.0328L145.48 53.6982L145.539 53.6882L145.709 50.7384L147.475 38.5127Z" fill="#FF8A00"/>
<path d="M171.639 51.7525L162.667 54.4217L162.342 53.3291C162.984 52.6792 163.677 52.1702 164.423 51.8022L159.581 35.5273C159.181 35.5839 158.747 35.5982 158.279 35.5703C157.812 35.5424 157.387 35.4811 157.004 35.3864L156.679 34.2937L165.65 31.6245L165.975 32.7172C165.693 33.0307 165.364 33.3269 164.988 33.6057C164.625 33.8597 164.26 34.0724 163.894 34.244L168.736 50.5189C169.143 50.4815 169.567 50.47 170.009 50.4844C170.471 50.4932 170.906 50.5516 171.314 50.6598L171.639 51.7525Z" fill="#FF8A00"/>
<path d="M183.568 24.6011L190.389 21.63L190.845 22.6751C190.616 23.1019 190.339 23.5172 190.013 23.9209C189.679 24.3063 189.353 24.6339 189.034 24.9036L196.582 42.2311L194.244 43.2494L178.425 33.4516L176.402 31.813L176.32 31.849L177.526 33.9414L182.522 45.4106C182.928 45.3425 183.399 45.3227 183.935 45.351C184.482 45.353 184.959 45.3962 185.366 45.4804L185.821 46.5256L179.028 49.4848L178.573 48.4396C178.807 48.0758 179.077 47.7184 179.382 47.3673C179.697 46.9899 180.038 46.6451 180.404 46.3331L173.862 31.3159C173.432 31.329 172.993 31.3237 172.547 31.3001C172.1 31.2765 171.686 31.2277 171.305 31.1538L170.862 30.1362L176.802 27.5484L189.68 35.5516L191.975 37.3658L192.085 37.3179L190.918 35.0124L186.916 25.8261C186.412 25.8711 185.905 25.8846 185.396 25.8666C184.897 25.8223 184.439 25.7489 184.024 25.6463L183.568 24.6011Z" fill="#FF8A00"/>
<path d="M219.867 26.7048C219.634 27.0866 219.325 27.5161 218.94 27.9935C218.554 28.4708 218.133 28.9471 217.675 29.4224C217.218 29.8977 216.744 30.3475 216.255 30.7719C215.765 31.1963 215.309 31.5412 214.885 31.8066C213.427 32.7195 212.005 33.3503 210.619 33.6992C209.239 34.0205 207.904 34.0545 206.612 33.8012C205.328 33.5204 204.112 32.9363 202.967 32.049C201.821 31.1617 200.771 29.9553 199.815 28.4297C198.775 26.7685 198.148 25.2024 197.935 23.7313C197.728 22.2326 197.82 20.8535 198.211 19.5939C198.609 18.3067 199.244 17.1539 200.116 16.1356C200.989 15.1172 201.993 14.2525 203.129 13.5413C204.248 12.8407 205.346 12.2589 206.425 11.7958C207.504 11.3327 208.421 11.0648 209.178 10.9921C209.337 11.2463 209.527 11.5875 209.748 12.0155C209.975 12.416 210.207 12.861 210.443 13.3505C210.678 13.8401 210.897 14.3402 211.099 14.8509C211.318 15.3511 211.493 15.8194 211.625 16.256L210.582 16.9088L206.739 13.9357C206.499 13.9677 206.182 14.0835 205.788 14.2831C205.383 14.4658 204.994 14.6739 204.621 14.9074C203.926 15.3426 203.342 15.8975 202.868 16.572C202.393 17.2466 202.101 18.0429 201.992 18.961C201.872 19.8621 201.97 20.8859 202.287 22.0326C202.593 23.1623 203.176 24.4136 204.036 25.7867C204.737 26.9054 205.506 27.8513 206.344 28.6244C207.188 29.3699 208.055 29.9246 208.944 30.2885C209.832 30.6524 210.724 30.8138 211.618 30.7727C212.513 30.7317 213.359 30.4617 214.155 29.9628C214.41 29.8036 214.662 29.6221 214.912 29.4184C215.151 29.1977 215.368 28.9792 215.563 28.7628C215.758 28.5464 215.914 28.3427 216.03 28.1518C216.163 27.9503 216.243 27.7944 216.268 27.6841L213.275 22.904C212.813 23.1461 212.344 23.3214 211.87 23.4299C211.395 23.5384 210.93 23.6056 210.474 23.6314L209.869 22.6652L216.81 18.3186L217.415 19.2848C217.358 19.5329 217.245 19.8043 217.076 20.0992C216.896 20.377 216.637 20.6804 216.3 21.0093L219.867 26.7048Z" fill="#FF8A00"/>
</svg>
