<svg width="152" height="51" viewBox="0 0 152 51" fill="none" xmlns="http://www.w3.org/2000/svg">
<path d="M11.8426 21.6049C12.6987 21.2331 13.5325 20.9982 14.3439 20.9002C15.164 20.7802 16.0449 20.7793 16.9865 20.8973L17.3247 20.2325C17.5654 19.7827 17.7772 19.4545 17.96 19.2479C18.1582 19.0347 18.4101 18.8617 18.7158 18.7289C19.0827 18.5695 19.4097 18.5275 19.6968 18.6027C19.9772 18.6626 20.1838 18.8454 20.3165 19.1512C20.3697 19.2735 20.4032 19.4134 20.4171 19.5709L20.8283 23.1536C20.8806 23.567 20.8559 23.8866 20.7541 24.1125C20.6677 24.3318 20.4639 24.5111 20.1429 24.6506C19.8066 24.7966 19.4653 24.8267 19.1191 24.7408C18.7816 24.6331 18.2058 24.3743 17.3919 23.9646C16.5913 23.5855 15.9162 23.3699 15.3667 23.3179C14.8258 23.2439 14.326 23.3065 13.8674 23.5057C13.5311 23.6517 13.298 23.8892 13.1683 24.2181C13.032 24.5317 13.0335 24.849 13.1729 25.1701C13.3323 25.537 13.6651 25.8012 14.1714 25.9629C14.6711 26.1093 15.4137 26.2502 16.3991 26.3855C17.3999 26.5142 18.2431 26.6567 18.9289 26.8132C19.6146 26.9696 20.2638 27.251 20.8763 27.6572C21.4888 28.0635 21.9545 28.6336 22.2731 29.3674C22.479 29.8413 22.6083 30.3484 22.6613 30.8886C22.8255 32.271 22.5197 33.5122 21.7437 34.6124C20.9611 35.6973 19.8666 36.5451 18.4602 37.1559C17.4053 37.614 16.4656 37.8768 15.6408 37.9443C14.8161 38.0117 13.9031 37.9176 12.9017 37.662L12.375 38.7085C12.1322 39.1955 11.9151 39.5533 11.7236 39.7818C11.5255 39.995 11.2736 40.168 10.9678 40.3008C10.6162 40.4535 10.2969 40.4923 10.0098 40.4171C9.73807 40.3352 9.53911 40.1491 9.41297 39.8586C9.34657 39.7057 9.30744 39.5319 9.29555 39.3372L8.93529 35.4326C8.88497 34.982 8.9303 34.6261 9.07129 34.365C9.21228 34.1039 9.45093 33.9003 9.78725 33.7543C10.1389 33.6016 10.5054 33.5878 10.8868 33.7128C11.2834 33.8313 11.8505 34.112 12.588 34.5548C13.3826 35.0456 14.046 35.3389 14.5783 35.4348C15.1258 35.5241 15.69 35.4426 16.271 35.1903C16.6837 35.011 16.9705 34.8138 17.1314 34.5985C17.301 34.3614 17.3686 34.0776 17.3341 33.7473C17.3315 33.6576 17.297 33.5363 17.2306 33.3835C17.0713 33.0166 16.7494 32.7566 16.265 32.6036C15.7806 32.4505 15.0786 32.3193 14.1589 32.21C13.1734 32.0747 12.3565 31.9298 11.7079 31.7754C11.0527 31.6056 10.4189 31.3176 9.80635 30.9114C9.20909 30.4984 8.74448 29.9098 8.41252 29.1454C8.18014 28.6104 8.03517 28.0465 7.97759 27.4537C7.84052 26.2594 8.12939 25.1255 8.84421 24.0519C9.55903 22.9783 10.5585 22.1626 11.8426 21.6049Z" fill="black"/>
<path d="M40.1976 12.4619C41.9093 12.0248 43.3203 12.0602 44.4304 12.568C45.5567 13.0717 46.2766 13.9371 46.5899 15.1644C46.7136 15.6489 46.7709 16.1761 46.7616 16.7461C46.7218 18.4764 46.1307 19.9003 44.9883 21.0177C43.862 22.1309 42.2815 22.9473 40.2468 23.4669L37.7518 24.1039L37.6767 27.2452C37.6691 27.3503 37.686 27.4836 37.7272 27.6451C37.7849 27.8712 37.8808 28.0445 38.0148 28.1651C38.1649 28.2816 38.3697 28.4099 38.6291 28.5501C38.848 28.6662 39 28.7564 39.0852 28.8207C39.1705 28.8849 39.2275 28.9736 39.2564 29.0866C39.3265 29.3611 39.2467 29.5879 39.0172 29.7669C38.7877 29.9459 38.4227 30.0993 37.9221 30.2272L31.8421 31.7796C31.4223 31.8868 31.0888 31.8946 30.8418 31.8028C30.5906 31.695 30.4623 31.4955 30.4568 31.2045C30.452 31.0509 30.4877 30.9214 30.564 30.8159C30.62 30.6984 30.7224 30.5604 30.8711 30.402C31.1044 30.1705 31.2791 29.9452 31.3953 29.7264C31.5114 29.5075 31.5705 29.2 31.5725 28.8038L31.8619 17.6092C31.8729 17.3828 31.8537 17.1727 31.8042 16.9789C31.7588 16.8013 31.6894 16.6642 31.596 16.5676C31.5145 16.4508 31.4048 16.324 31.2666 16.1873C31.0677 16.0145 30.9517 15.8635 30.9187 15.7343C30.9064 15.6858 30.8998 15.5929 30.8991 15.4554C30.9101 15.229 31.0103 15.0486 31.1996 14.9143C31.4009 14.7597 31.7277 14.6246 32.1799 14.5092L40.1976 12.4619ZM40.8852 17.7822C40.9103 17.1393 40.8651 16.5918 40.7497 16.1397C40.5105 15.203 39.9549 14.8461 39.0829 15.0687L37.9929 15.3471L37.8008 21.7692L38.8666 21.4971C39.5448 21.3239 40.0402 20.9738 40.3529 20.4467C40.6776 19.8994 40.855 19.0112 40.8852 17.7822Z" fill="black"/>
<path d="M64.344 8.56873C66.4361 8.38667 68.1149 8.74246 69.3805 9.6361C70.6446 10.5131 71.3576 11.8815 71.5194 13.7411C71.596 14.6211 71.5456 15.5791 71.368 16.6151C71.0318 18.5181 70.3969 20.1626 69.4636 21.5488C68.5303 22.9349 67.3702 24.0229 65.9835 24.8128C64.5967 25.6026 63.0566 26.0713 61.363 26.2186C59.2875 26.3993 57.6177 26.051 56.3535 25.174C55.088 24.2804 54.3743 22.9037 54.2124 21.0441C54.1387 20.1973 54.1953 19.2137 54.3822 18.0932C54.7034 16.2083 55.323 14.5818 56.2412 13.2137C57.1745 11.8276 58.327 10.7486 59.6986 9.97677C61.0853 9.18691 62.6338 8.71756 64.344 8.56873ZM64.1081 11.0485C63.61 11.0919 63.179 11.3301 62.8152 11.7633C62.4514 12.1965 62.11 12.887 61.7909 13.8349C61.4871 14.7647 61.1811 16.0545 60.8729 17.7041C60.4111 20.0864 60.2184 21.7176 60.295 22.5976C60.3398 23.1123 60.4636 23.478 60.6665 23.6945C60.8694 23.9111 61.1701 24.002 61.5686 23.9673C62.0667 23.924 62.4976 23.6857 62.8615 23.2526C63.2238 22.8028 63.5569 22.113 63.8608 21.1831C64.1647 20.2533 64.4804 18.9794 64.8081 17.3616C65.2562 15.0139 65.4398 13.3752 65.3589 12.4453C65.3127 11.914 65.1881 11.5401 64.9852 11.3235C64.7824 11.107 64.49 11.0153 64.1081 11.0485Z" fill="black"/>
<path d="M97.6532 14.9059C97.3103 15.8482 96.7514 16.5643 95.9765 17.054C95.2029 17.5272 94.2543 17.7856 93.1305 17.8295C93.9227 17.9597 94.5022 18.2402 94.869 18.6708C95.2358 19.1015 95.3933 19.6407 95.3414 20.2887C95.3215 20.5379 95.2553 20.8419 95.143 21.2007L94.7712 22.3999C94.7246 22.5634 94.6987 22.6783 94.6934 22.7448C94.6761 22.9608 94.7127 23.1309 94.803 23.2552C94.8947 23.3628 95.032 23.424 95.2147 23.4386C95.5636 23.4665 95.8088 23.5363 95.9504 23.648C96.1085 23.7609 96.152 23.9483 96.0809 24.2102C95.9839 24.587 95.7546 24.9448 95.3931 25.2837C95.0316 25.6226 94.5335 25.8921 93.8988 26.0921C93.2821 26.2768 92.5418 26.3346 91.6779 26.2655C90.5814 26.1777 89.7285 25.867 89.1191 25.3334C88.5111 24.7831 88.2436 24.0511 88.3168 23.1373C88.3447 22.7885 88.4244 22.4186 88.556 22.0279L89.0824 20.4649C89.1661 20.2543 89.2173 20.0326 89.2359 19.8C89.2665 19.4179 89.1555 19.1332 88.903 18.9458C88.6671 18.7597 88.2667 18.644 87.7019 18.5988L86.7549 18.523L85.2775 22.5681C85.2363 22.6651 85.2097 22.7884 85.1977 22.9379C85.1791 23.1705 85.2213 23.3745 85.3243 23.5499C85.4273 23.7254 85.5712 23.9125 85.7559 24.1112C85.8961 24.2394 86.0031 24.365 86.0769 24.488C86.152 24.5943 86.1849 24.7056 86.1755 24.8219C86.1529 25.1043 86.0041 25.2931 85.729 25.3881C85.4538 25.4831 85.0588 25.51 84.5437 25.4688L78.2887 24.9682C77.8568 24.9336 77.5388 24.8329 77.3348 24.6661C77.1321 24.4827 77.0753 24.2524 77.1644 23.9753C77.2096 23.8285 77.2853 23.7175 77.3916 23.6424C77.4827 23.5494 77.6242 23.452 77.8163 23.3503C78.112 23.2068 78.3503 23.0503 78.531 22.8809C78.7118 22.7114 78.8673 22.4396 78.9976 22.0655L82.8974 11.5681C82.9812 11.3575 83.031 11.1525 83.047 10.9531C83.0616 10.7704 83.0403 10.6182 82.9832 10.4966C82.944 10.3597 82.8812 10.2042 82.7948 10.0301C82.6626 9.80211 82.6018 9.62168 82.6124 9.48877C82.6164 9.43893 82.6403 9.34889 82.6842 9.21864C82.7679 9.00798 82.9211 8.86976 83.1437 8.80398C83.3843 8.72291 83.7372 8.70099 84.2024 8.73822L92.5507 9.40635C93.697 9.49809 94.6798 9.75231 95.4992 10.169C96.3352 10.587 96.9529 11.1213 97.3522 11.7719C97.7696 12.4073 97.9476 13.107 97.8865 13.8713C97.8586 14.2201 97.7808 14.565 97.6532 14.9059ZM91.2935 14.1462C91.4072 13.7707 91.472 13.4833 91.4879 13.2839C91.5584 12.4034 91.1118 11.9246 90.1483 11.8475L89.1016 11.7637L87.6521 16.0869L88.6988 16.1706C89.3467 16.2225 89.866 16.1052 90.2568 15.8188C90.6642 15.5337 91.0097 14.9762 91.2935 14.1462Z" fill="black"/>
<path d="M125.117 16.0003C126.006 16.224 126.359 16.6995 126.176 17.4268C126.119 17.6531 125.999 17.9238 125.817 18.2388L124.741 20.0561C124.413 20.6094 124.089 20.9747 123.769 21.1521C123.449 21.3295 123.047 21.3571 122.562 21.2351C122.158 21.1334 121.869 20.9491 121.696 20.682C121.539 20.419 121.42 20.0368 121.34 19.5355L121.178 18.4378C121.126 18.0981 121.041 17.8534 120.924 17.7037C120.808 17.5539 120.595 17.4404 120.288 17.3632L119.731 17.2228L113.925 27.2851C113.823 27.4831 113.752 27.6628 113.712 27.8245C113.663 28.0184 113.646 28.1861 113.662 28.3276C113.694 28.4732 113.749 28.633 113.825 28.8069C113.914 29.0698 113.94 29.274 113.903 29.4194C113.895 29.4518 113.858 29.5285 113.794 29.6497C113.66 29.8394 113.46 29.9523 113.193 29.9883C112.942 30.0283 112.599 29.9934 112.162 29.8836L106.465 28.4499C106.125 28.3645 105.873 28.2408 105.707 28.0788C105.558 27.921 105.51 27.737 105.563 27.5269C105.587 27.4299 105.636 27.339 105.709 27.2542C105.81 27.125 105.909 27.0383 106.006 26.994C106.124 26.9376 106.285 26.8751 106.492 26.8067C106.771 26.7223 107.013 26.6115 107.22 26.4744C107.426 26.3373 107.633 26.0971 107.839 25.7538L113.621 15.6854L113.064 15.5451C112.708 15.4556 112.403 15.4389 112.148 15.4951C111.893 15.5513 111.598 15.7004 111.262 15.9425L110.212 16.7351C109.73 17.078 109.283 17.3178 108.871 17.4546C108.479 17.5793 108.08 17.5908 107.676 17.4891C107.305 17.3956 107.038 17.2254 106.877 16.9786C106.715 16.7317 106.677 16.4386 106.763 16.0992C106.804 15.9376 106.873 15.7659 106.97 15.5841L108.155 13.5365C108.399 13.1165 108.629 12.8137 108.848 12.6281C109.071 12.4263 109.34 12.3136 109.655 12.2898C109.991 12.2539 110.433 12.3052 110.983 12.4435L125.117 16.0003Z" fill="black"/>
<path d="M140.113 21.8838C140.969 22.2556 141.71 22.7045 142.335 23.2306C142.983 23.748 143.585 24.391 144.141 25.1597L144.858 24.953C145.351 24.8219 145.735 24.7526 146.011 24.7452C146.302 24.7444 146.601 24.8104 146.906 24.9432C147.273 25.1026 147.527 25.3128 147.668 25.5739C147.816 25.8197 147.823 26.0955 147.69 26.4012C147.637 26.5235 147.558 26.6435 147.452 26.7612L145.115 29.5074C144.849 29.8278 144.598 30.0279 144.364 30.1078C144.144 30.1942 143.874 30.1678 143.553 30.0283C143.217 29.8823 142.962 29.6534 142.788 29.3418C142.637 29.0216 142.433 28.4243 142.177 27.5498C141.907 26.706 141.604 26.0655 141.267 25.6283C140.951 25.1825 140.565 24.8601 140.106 24.6609C139.77 24.5148 139.437 24.5067 139.108 24.6364C138.786 24.7508 138.555 24.9685 138.416 25.2896C138.256 25.6565 138.29 26.0801 138.518 26.5605C138.752 27.0256 139.156 27.6644 139.73 28.4769C140.319 29.296 140.79 30.0095 141.144 30.6174C141.498 31.2254 141.735 31.8918 141.857 32.6168C141.978 33.3417 141.879 34.0711 141.56 34.8049C141.355 35.2788 141.072 35.7195 140.714 36.127C139.816 37.1906 138.7 37.8144 137.366 37.9984C136.039 38.1671 134.672 37.946 133.266 37.3352C132.211 36.8771 131.378 36.3697 130.765 35.8131C130.153 35.2564 129.599 34.525 129.102 33.6187L127.978 33.9482C127.456 34.1032 127.046 34.1888 126.749 34.2048C126.457 34.2056 126.159 34.1396 125.853 34.0068C125.502 33.8541 125.255 33.6472 125.114 33.3861C124.989 33.1316 124.989 32.8592 125.115 32.5687C125.181 32.4158 125.282 32.2686 125.416 32.127L128.023 29.1983C128.318 28.854 128.609 28.6442 128.896 28.569C129.183 28.4938 129.495 28.5292 129.831 28.6752C130.183 28.8279 130.443 29.0863 130.612 29.4504C130.796 29.8212 130.978 30.4272 131.158 31.2684C131.342 32.1841 131.581 32.8691 131.874 33.3236C132.182 33.7846 132.627 34.1413 133.208 34.3936C133.621 34.5729 133.961 34.6478 134.228 34.6185C134.517 34.5805 134.77 34.4362 134.988 34.1855C135.052 34.1224 135.117 34.0144 135.183 33.8615C135.343 33.4946 135.313 33.0819 135.094 32.6235C134.875 32.165 134.492 31.5625 133.944 30.8157C133.37 30.0032 132.918 29.3073 132.589 28.728C132.265 28.1333 132.043 27.4735 131.922 26.7485C131.816 26.0302 131.929 25.2889 132.261 24.5245C132.493 23.9895 132.806 23.4986 133.2 23.0518C133.98 22.1364 135.005 21.5735 136.278 21.363C137.55 21.1525 138.829 21.3261 140.113 21.8838Z" fill="black"/>
</svg>
