<svg width="270" height="85" viewBox="0 0 270 85" fill="none" xmlns="http://www.w3.org/2000/svg">
<path d="M11.1226 24.6756C11.1427 24.986 11.2369 25.3484 11.4054 25.7627C11.587 26.1619 11.9257 26.5794 12.4215 27.0151C13.2478 27.7412 14.1162 28.1315 15.0267 28.1861C15.9655 28.2389 16.7715 27.8822 17.4448 27.116C17.9332 26.5601 18.1622 25.9359 18.1317 25.2435C18.1162 24.5643 17.9766 23.8293 17.713 23.0385C17.4494 22.2477 17.1416 21.4315 16.7897 20.5897C16.451 19.733 16.196 18.8566 16.0248 17.9607C15.8536 17.0648 15.8386 16.1729 15.9797 15.2852C16.149 14.3956 16.6099 13.5226 17.3624 12.6663C18.0093 11.9301 18.7056 11.4104 19.4513 11.1072C20.197 10.804 20.9545 10.6843 21.7239 10.748C22.5215 10.8099 23.3159 11.042 24.1072 11.4444C24.9116 11.8318 25.6894 12.3556 26.4406 13.0157C27.357 13.821 28.1465 14.6345 28.8089 15.4562C29.4995 16.2761 30.0415 17.0985 30.4349 17.9234C30.1558 18.2107 29.8221 18.5298 29.4338 18.8808C29.0605 19.245 28.6722 19.596 28.2689 19.9338C27.8787 20.2566 27.4943 20.5578 27.1155 20.8373C26.765 21.115 26.4606 21.3402 26.2025 21.5127L25.2786 20.7008L26.9549 16.7025C26.8538 16.4539 26.656 16.1337 26.3615 15.7417C26.0819 15.363 25.7544 15.0086 25.3788 14.6785C24.7478 14.124 24.0692 13.8206 23.3431 13.7683C22.617 13.716 21.9767 14.0053 21.4222 14.6363C20.9205 15.2072 20.6717 15.8539 20.6758 16.5764C20.6932 17.2838 20.827 18.0404 21.0774 18.8462C21.3279 19.652 21.6233 20.4974 21.9639 21.3824C22.3327 22.2656 22.6027 23.1551 22.7739 24.0511C22.9451 24.947 22.9601 25.8388 22.819 26.7266C22.6911 27.5993 22.2641 28.4488 21.538 29.2751C20.2178 30.7775 18.6839 31.493 16.9361 31.4215C15.2167 31.3483 13.3729 30.4469 11.4048 28.7175C10.924 28.295 10.4621 27.8359 10.0192 27.3402C9.59122 26.8576 9.20561 26.3723 8.86233 25.8843C8.51906 25.3963 8.22746 24.9404 7.98753 24.5165C7.76262 24.1059 7.62695 23.7604 7.58051 23.4799C7.89917 23.1476 8.26018 22.8125 8.66352 22.4747C9.08007 22.1219 9.49001 21.7766 9.89335 21.4388C10.3249 21.0991 10.7367 20.782 11.1287 20.4875C11.5206 20.1929 11.873 19.9434 12.1857 19.739L13.1097 20.5509L11.1226 24.6756Z" fill="#FF8A00"/>
<path d="M39.8945 41.85L40.9151 42.5365C40.8029 42.8466 40.6433 43.2093 40.4364 43.6245C40.2572 44.0342 40.0391 44.466 39.782 44.9198C39.5528 45.3682 39.3069 45.8054 39.0445 46.2314C38.782 46.6575 38.5391 47.0365 38.3159 47.3684C37.4895 47.3428 36.5863 47.1089 35.6063 46.6666C34.6429 46.2356 33.7048 45.7131 32.792 45.0991C31.4146 44.1727 30.2733 43.164 29.368 42.0731C28.4906 40.9767 27.8991 39.7955 27.5937 38.5295C27.316 37.2581 27.3409 35.9131 27.6685 34.4944C28.0072 33.0591 28.7123 31.5448 29.7839 29.9517C30.8443 28.3751 31.9863 27.1789 33.21 26.3629C34.4615 25.5416 35.7311 25.0337 37.0188 24.8393C38.3065 24.6448 39.5847 24.7333 40.8535 25.1046C42.15 25.4705 43.3791 26.0441 44.5408 26.8254C45.6361 27.5622 46.5677 28.3093 47.3356 29.0668C48.1313 29.8189 48.722 30.5175 49.1076 31.1626C48.929 31.4281 48.6836 31.7571 48.3713 32.1497C48.0757 32.5534 47.7384 32.9653 47.3595 33.3853C47.0083 33.7999 46.6406 34.2033 46.2562 34.5956C45.8996 34.9824 45.5877 35.3029 45.3204 35.5569L44.2749 34.8537L45.434 30.174C45.3404 29.9905 45.1444 29.7623 44.846 29.4893C44.5476 29.2163 44.2241 28.9625 43.8756 28.7281C43.1952 28.2705 42.4614 27.9818 41.6742 27.8621C40.8982 27.7258 40.0769 27.8001 39.2104 28.0849C38.3439 28.3698 37.4598 28.896 36.558 29.6633C35.6674 30.414 34.7812 31.4449 33.8994 32.756C32.3032 35.1291 31.5483 37.2727 31.6348 39.1868C31.7212 41.1009 32.5776 42.6049 34.204 43.6988C34.6686 44.0113 35.0809 44.2404 35.4409 44.3861C35.8286 44.5264 36.1252 44.5692 36.3307 44.5146L39.8945 41.85Z" fill="#FF8A00"/>
<path d="M53.5458 33.1542L61.8677 37.1696L61.3723 38.1963C60.5954 38.2878 59.7849 38.2187 58.9408 37.989L53.9215 48.3914C53.4956 49.274 53.2383 50.0604 53.1497 50.7504C53.061 51.4404 53.1145 52.0658 53.3103 52.6266C53.5147 53.1694 53.839 53.6479 54.2831 54.062C54.7453 54.4849 55.3096 54.8571 55.9761 55.1787C56.5705 55.4655 57.15 55.6452 57.7146 55.7177C58.3058 55.781 58.8729 55.7104 59.4156 55.5059C59.9764 55.3102 60.5036 54.9539 60.9973 54.4371C61.4909 53.9202 61.955 53.2115 62.3896 52.3109L67.2785 42.1787C66.9077 41.8887 66.5362 41.554 66.1641 41.1746C65.8101 40.8039 65.5367 40.45 65.3441 40.1128L65.8395 39.086L72.5403 42.3192L72.0449 43.346C71.6076 43.4237 71.1561 43.439 70.6903 43.3919C70.2245 43.3448 69.7807 43.275 69.359 43.1825L64.4571 53.3417C63.3446 55.6474 61.8847 57.1081 60.0775 57.7239C58.297 58.3305 56.299 58.0992 54.0834 57.0302C51.6697 55.8655 50.0661 54.4256 49.2727 52.7103C48.4793 50.9951 48.6562 48.9486 49.8034 46.5709L54.8879 36.0335C54.5537 35.8056 54.2189 35.533 53.8835 35.2157C53.5567 34.8804 53.279 34.5355 53.0504 34.1809L53.5458 33.1542Z" fill="#FF8A00"/>
<path d="M69.7157 63.668L70.0602 62.5813C70.4889 62.4865 70.9276 62.4262 71.3763 62.4006C71.8441 62.3811 72.2747 62.4127 72.6681 62.4955L77.7997 46.3095C77.4426 46.1123 77.0755 45.8805 76.6984 45.6141C76.3273 45.3286 76.0004 45.0361 75.7177 44.7367L76.0622 43.65L80.6664 45.1097C81.3908 45.3394 82.0862 45.5284 82.7526 45.6767C83.4189 45.825 84.1715 46.0322 85.0103 46.2981C85.9255 46.5882 86.7908 46.936 87.6064 47.3415C88.422 47.7469 89.1091 48.227 89.6675 48.7817C90.226 49.3364 90.6057 49.9918 90.8066 50.7479C91.0135 51.4849 90.9629 52.3396 90.6546 53.3119C90.4612 53.9219 90.1655 54.4576 89.7674 54.9189C89.3945 55.3672 88.9444 55.728 88.4171 56.0014C87.9089 56.2809 87.3456 56.4695 86.7271 56.5671C86.1278 56.6708 85.5049 56.6832 84.8586 56.6042L84.8223 56.7185C85.4082 56.9882 85.973 57.3246 86.5165 57.7278C87.0792 58.1369 87.5449 58.6203 87.9136 59.1778C88.2824 59.7353 88.5226 60.3675 88.6342 61.0742C88.7709 61.768 88.7093 62.5248 88.4494 63.3446C88.123 64.3741 87.6132 65.188 86.9199 65.7865C86.2266 66.385 85.4136 66.7986 84.4808 67.0274C83.5671 67.2622 82.5783 67.3369 81.5144 67.2514C80.4566 67.1468 79.3938 66.9252 78.3262 66.5868C77.9259 66.4598 77.4904 66.3113 77.0198 66.1411C76.5492 65.9709 76.0787 65.8008 75.6081 65.6306C75.1375 65.4604 74.6765 65.2933 74.225 65.1291C73.7925 64.971 73.4238 64.8436 73.1187 64.7469L69.7157 63.668ZM78.8869 64.7189C80.088 65.0997 81.1435 65.0462 82.0535 64.5584C82.9695 64.0515 83.6149 63.2071 83.9897 62.025C84.2194 61.3006 84.2923 60.6733 84.2086 60.1432C84.131 59.5941 83.9343 59.1226 83.6185 58.7287C83.3088 58.3158 82.8926 57.9741 82.37 57.7035C81.8534 57.4138 81.271 57.1662 80.6228 56.9607L79.1071 56.4802L76.777 63.8296C77.0258 63.9715 77.2871 64.1068 77.561 64.2356C77.854 64.3704 78.2959 64.5315 78.8869 64.7189ZM80.6115 54.9115C80.9356 55.0142 81.2628 55.1075 81.5929 55.1911C81.9291 55.2558 82.2462 55.3143 82.5443 55.3669C83.3845 55.2976 84.1332 55.0209 84.7902 54.5368C85.4532 54.0337 85.9147 53.3722 86.1746 52.5524C86.5554 51.3513 86.5189 50.3746 86.065 49.6223C85.6172 48.8509 84.8976 48.308 83.9063 47.9937C83.4868 47.8607 83.1216 47.7554 82.8105 47.6778C82.4994 47.6001 82.2139 47.5411 81.954 47.5007L79.6964 54.6214L80.6115 54.9115Z" fill="#FF8A00"/>
<path d="M100.809 72.0885L93.4995 70.8752L93.6861 69.7506C94.0346 69.6057 94.3978 69.4937 94.7759 69.4145C95.1769 69.3189 95.5616 69.2611 95.9298 69.2411L106.734 51.4195L108.924 51.783L113.184 72.1048C113.565 72.2492 113.94 72.4331 114.309 72.6564C114.68 72.86 114.998 73.085 115.261 73.3315L115.074 74.4561L105.811 72.9186L105.998 71.794C106.402 71.6786 106.834 71.5781 107.295 71.4923C107.755 71.4065 108.189 71.3569 108.597 71.3434L107.661 66.3529L101.091 65.2624L98.5638 69.6783C99.4517 69.9473 100.263 70.3758 100.996 70.9639L100.809 72.0885ZM102.12 63.4567L107.359 64.3261L106.373 58.3541L106.233 55.7156L106.174 55.7058L105.091 58.2021L102.12 63.4567Z" fill="#FF8A00"/>
<path d="M135.51 75.4967L135.438 74.3589C135.765 74.1379 136.134 73.9443 136.544 73.7781C136.953 73.592 137.385 73.4445 137.839 73.3357L136.769 56.3894C136.303 56.3186 135.847 56.2272 135.399 56.1152C134.97 55.982 134.59 55.8356 134.259 55.6761L134.187 54.5384L137.66 54.3191C138 54.2977 138.418 54.2613 138.916 54.2098C139.414 54.1583 139.931 54.1056 140.469 54.0516C141.005 53.9777 141.522 53.915 142.02 53.8635C142.537 53.7908 142.974 53.7432 143.334 53.7205C145.07 53.6108 146.632 53.7427 148.018 54.1161C149.424 54.4883 150.624 55.0838 151.618 55.9029C152.631 56.7206 153.428 57.7625 154.009 59.0284C154.61 60.293 154.964 61.7737 155.071 63.4703C155.176 65.127 155.032 66.6491 154.638 68.0367C154.245 69.4242 153.599 70.6273 152.702 71.6458C151.804 72.6644 150.634 73.4898 149.191 74.122C147.766 74.7329 146.066 75.1008 144.09 75.2255C143.831 75.2419 143.48 75.244 143.039 75.2318C142.598 75.2396 142.127 75.2393 141.626 75.2308C141.125 75.2424 140.624 75.2439 140.123 75.2355C139.623 75.2471 139.183 75.2648 138.804 75.2888L135.51 75.4967ZM143.067 55.6912C142.708 55.7139 142.349 55.7465 141.991 55.7892C141.633 55.8318 141.326 55.8813 141.069 55.9376L142.163 73.2731C142.244 73.288 142.385 73.2991 142.586 73.3065C142.786 73.2939 142.986 73.2913 143.187 73.2986C143.407 73.2848 143.617 73.2815 143.818 73.2889C144.017 73.2763 144.167 73.2668 144.267 73.2605C145.424 73.1874 146.387 72.8862 147.156 72.3567C147.944 71.826 148.571 71.1351 149.039 70.2839C149.506 69.4328 149.825 68.4508 149.995 67.3378C150.165 66.2249 150.211 65.0497 150.133 63.8121C150.064 62.7143 149.867 61.6646 149.544 60.663C149.24 59.6602 148.803 58.7759 148.234 58.0103C147.664 57.2446 146.945 56.6487 146.077 56.2226C145.228 55.7952 144.225 55.6181 143.067 55.6912Z" fill="#FF8A00"/>
<path d="M173.253 71.1771L164.055 72.9118L163.844 71.7915C164.548 71.2109 165.291 70.7758 166.07 70.4863L162.924 53.8004C162.519 53.8156 162.086 53.7853 161.624 53.7096C161.162 53.634 160.746 53.5294 160.374 53.3958L160.163 52.2756L169.361 50.5409L169.572 51.6612C169.259 51.9441 168.901 52.2049 168.499 52.4437C168.112 52.6591 167.728 52.8334 167.346 52.9665L170.492 69.6523C170.9 69.6568 171.324 69.6889 171.762 69.7486C172.221 69.8047 172.647 69.9074 173.042 70.0569L173.253 71.1771Z" fill="#FF8A00"/>
<path d="M190.596 46.6163C190.108 46.6674 189.63 46.6838 189.163 46.6655C188.714 46.6411 188.303 46.6046 187.931 46.5558L187.583 45.4701L194.84 43.1473L195.188 44.2331C195.008 44.4586 194.752 44.7085 194.42 44.9828C194.107 45.2511 193.765 45.4968 193.396 45.7201L192.613 65.9096L189.894 67.1578L176.624 51.0881C176.213 51.1148 175.795 51.1224 175.371 51.111C174.942 51.0806 174.556 51.0254 174.216 50.9454L173.868 49.8596L183.383 46.8144L183.73 47.9001C183.455 48.1562 183.142 48.4244 182.791 48.7048C182.44 48.9852 182.06 49.2432 181.653 49.4786L189.256 59.4558L190.773 61.9312L190.83 61.913L190.58 58.9688L190.596 46.6163Z" fill="#FF8A00"/>
<path d="M216.386 56.2711L207.89 60.1995L207.412 59.1648C207.953 58.4297 208.567 57.8265 209.252 57.3553L202.126 41.9431C201.738 42.0566 201.31 42.133 200.844 42.1724C200.377 42.2119 199.948 42.2122 199.555 42.1733L199.077 41.1386L207.572 37.2102L208.051 38.2449C207.816 38.5957 207.533 38.9361 207.201 39.266C206.878 39.5693 206.548 39.8321 206.21 40.0545L213.337 55.4666C213.733 55.3713 214.152 55.2991 214.592 55.2499C215.05 55.1923 215.488 55.1878 215.908 55.2364L216.386 56.2711Z" fill="#FF8A00"/>
<path d="M224.259 27.6844L230.577 23.7546L231.179 24.7226C231.015 25.1781 230.801 25.6292 230.537 26.0759C230.262 26.5057 229.987 26.8772 229.711 27.1903L239.694 43.2388L237.528 44.5857L220.455 37.1876L218.216 35.86L218.139 35.9075L219.636 37.8028L226.244 48.4254C226.636 48.299 227.1 48.211 227.634 48.1612C228.175 48.0839 228.653 48.0574 229.068 48.0816L229.671 49.0496L223.379 52.9635L222.776 51.9955C222.955 51.6015 223.17 51.2087 223.421 50.8171C223.679 50.3979 223.966 50.0073 224.282 49.6455L215.631 35.7368C215.206 35.8122 214.772 35.8707 214.326 35.9121C213.881 35.9536 213.465 35.9654 213.077 35.9476L212.49 35.0051L217.993 31.5824L231.895 37.6318L234.43 39.0936L234.532 39.0302L233.042 36.9187L227.749 28.4105C227.257 28.5281 226.758 28.6151 226.251 28.6712C225.751 28.6998 225.287 28.6935 224.861 28.6524L224.259 27.6844Z" fill="#FF8A00"/>
<path d="M260.453 24.4588C260.279 24.8707 260.036 25.3411 259.725 25.87C259.414 26.3989 259.068 26.932 258.685 27.4695C258.302 28.0069 257.9 28.5216 257.479 29.0134C257.057 29.5053 256.657 29.9137 256.276 30.2385C254.969 31.3561 253.655 32.1894 252.336 32.7386C251.018 33.2596 249.702 33.4899 248.388 33.4295C247.075 33.3409 245.787 32.9421 244.524 32.2331C243.26 31.5242 242.043 30.4856 240.874 29.1173C239.6 27.6274 238.75 26.1706 238.322 24.7469C237.897 23.2951 237.785 21.9174 237.986 20.6139C238.19 19.2823 238.648 18.0486 239.361 16.9128C240.074 15.7771 240.94 14.7739 241.959 13.9033C242.962 13.0456 243.963 12.3084 244.962 11.6915C245.961 11.0746 246.829 10.6745 247.567 10.4911C247.762 10.7192 248 11.0287 248.282 11.4195C248.565 11.7822 248.86 12.1883 249.165 12.6377C249.47 13.0872 249.76 13.5497 250.035 14.0251C250.325 14.4876 250.568 14.925 250.762 15.3375L249.827 16.1367L245.587 13.7619C245.355 13.8288 245.059 13.99 244.698 14.2455C244.325 14.4858 243.971 14.7488 243.636 15.0347C243.013 15.5675 242.517 16.2024 242.147 16.9395C241.777 17.6765 241.605 18.5071 241.632 19.4313C241.646 20.3403 241.894 21.3385 242.377 22.426C242.846 23.4983 243.607 24.6501 244.659 25.8816C245.517 26.885 246.417 27.7073 247.36 28.3486C248.305 28.9617 249.244 29.3827 250.176 29.6118C251.109 29.8409 252.014 29.8692 252.893 29.6969C253.772 29.5246 254.569 29.1331 255.283 28.5223C255.511 28.3274 255.734 28.1108 255.951 27.8724C256.155 27.6189 256.338 27.3708 256.499 27.128C256.66 26.8853 256.784 26.661 256.871 26.455C256.973 26.236 257.028 26.0702 257.037 25.9574L253.373 21.6701C252.952 21.9775 252.514 22.2199 252.06 22.3971C251.607 22.5744 251.157 22.7093 250.709 22.802L249.969 21.9354L256.195 16.6141L256.935 17.4807C256.915 17.7344 256.843 18.0196 256.719 18.3361C256.582 18.6375 256.371 18.9756 256.087 19.3505L260.453 24.4588Z" fill="#FF8A00"/>
</svg>
