<svg width="168" height="60" viewBox="0 0 168 60" fill="none" xmlns="http://www.w3.org/2000/svg">
<path d="M9.83482 27.1256C9.91492 27.4262 10.0779 27.7633 10.3238 28.1369C10.5797 28.4931 10.9932 28.8366 11.5643 29.1675C12.5161 29.7188 13.4439 29.9326 14.3476 29.809C15.2787 29.678 15.9998 29.1712 16.5111 28.2886C16.882 27.6482 16.9851 26.9915 16.8204 26.3182C16.6729 25.655 16.393 24.9612 15.9805 24.2369C15.5679 23.5126 15.1072 22.7718 14.5981 22.0147C14.0991 21.2403 13.6784 20.4303 13.336 19.5849C12.9937 18.7394 12.8053 17.8675 12.7709 16.9693C12.7638 16.0638 13.046 15.1178 13.6174 14.1314C14.1086 13.2834 14.6904 12.6381 15.3628 12.1955C16.0352 11.7529 16.7549 11.488 17.522 11.4007C18.3164 11.3061 19.1408 11.3792 19.9952 11.6199C20.8597 11.8433 21.7246 12.2056 22.5899 12.7068C23.6456 13.3183 24.5783 13.9626 25.388 14.6396C26.225 15.3094 26.9167 16.0105 27.4632 16.7431C27.2454 17.0792 26.9802 17.4572 26.6676 17.8771C26.3724 18.307 26.0598 18.7269 25.73 19.1367C25.4101 19.5293 25.0916 19.8995 24.7745 20.2474C24.4848 20.5881 24.2301 20.8682 24.0105 21.0876L22.9462 20.4711L23.8121 16.223C23.6646 15.9989 23.4082 15.7232 23.043 15.3961C22.695 15.079 22.3048 14.7952 21.8721 14.5445C21.1452 14.1235 20.4206 13.958 19.6982 14.048C18.9757 14.138 18.404 14.5465 17.983 15.2734C17.602 15.931 17.4839 16.6137 17.6286 17.3216C17.7833 18.0122 18.0619 18.7282 18.4644 19.4699C18.8669 20.2115 19.3213 20.9832 19.8276 21.785C20.3613 22.5795 20.7992 23.3994 21.1416 24.2449C21.4839 25.0904 21.6723 25.9622 21.7067 26.8604C21.7511 27.7414 21.4977 28.6577 20.9463 29.6096C19.9439 31.3402 18.5785 32.3406 16.8504 32.6108C15.1495 32.8737 13.1655 32.3485 10.8984 31.0353C10.3446 30.7145 9.8022 30.3541 9.2712 29.954C8.75749 29.564 8.28479 29.1631 7.85308 28.7512C7.42137 28.3394 7.04659 27.9489 6.72874 27.5799C6.4282 27.2209 6.22786 26.9084 6.12771 26.6424C6.37559 26.2544 6.66446 25.8554 6.99432 25.4455C7.33421 25.0184 7.66909 24.5999 7.99896 24.19C8.35615 23.7728 8.69831 23.3817 9.02543 23.0164C9.35256 22.6512 9.64961 22.3379 9.91658 22.0765L10.9809 22.693L9.83482 27.1256Z" fill="#FF8A00"/>
<path d="M31.589 18.3511L40.265 21.5299L39.8728 22.6003C39.1086 22.7676 38.2952 22.7784 37.4327 22.6328L33.4592 33.4778C33.1221 34.398 32.9433 35.2058 32.9228 35.9012C32.9023 36.5966 33.017 37.2137 33.2669 37.7526C33.5236 38.2726 33.8933 38.717 34.376 39.0855C34.8775 39.4609 35.4756 39.7759 36.1704 40.0305C36.7902 40.2576 37.3845 40.3795 37.9535 40.3962C38.5481 40.4011 39.1054 40.2751 39.6255 40.0184C40.1644 39.7685 40.654 39.3622 41.0945 38.7994C41.5351 38.2366 41.9273 37.4857 42.2713 36.5467L46.1416 25.9834C45.7441 25.7312 45.3415 25.4347 44.934 25.0936C44.5452 24.7595 44.2384 24.4341 44.0136 24.1174L44.4058 23.047L51.3917 25.6065L50.9995 26.677C50.572 26.7972 50.1242 26.8568 49.656 26.8557C49.1878 26.8545 48.7394 26.8287 48.3106 26.7781L44.43 37.3696C43.5493 39.7733 42.24 41.3703 40.502 42.1607C38.7897 42.9391 36.7786 42.9052 34.4688 42.0589C31.9523 41.1369 30.2151 39.8614 29.2571 38.2324C28.299 36.6034 28.2741 34.5494 29.1823 32.0706L33.2074 21.0847C32.8524 20.8908 32.4924 20.6524 32.1275 20.3696C31.7694 20.068 31.4591 19.7519 31.1968 19.4215L31.589 18.3511Z" fill="#FF8A00"/>
<path d="M58.057 46.1944C58.4946 46.3678 58.8781 46.5626 59.2073 46.779C59.5365 46.9954 59.8559 47.2101 60.1654 47.4232L59.9802 48.5481L50.8629 47.0469L51.0481 45.9221C51.5213 45.7568 51.9649 45.6474 52.3791 45.594C52.7965 45.5208 53.2091 45.4773 53.6168 45.4633L56.3753 28.7089C55.4244 28.3293 54.6624 27.91 54.0894 27.4508L54.2746 26.3259L57.4123 26.8425C57.807 26.9075 58.2527 26.9708 58.7493 27.0323C59.2656 27.097 59.8017 27.165 60.3575 27.2362C60.9165 27.2878 61.4838 27.3508 62.0594 27.4252C62.6382 27.48 63.194 27.5512 63.7268 27.639C64.8122 27.8177 65.7877 28.11 66.6532 28.516C67.5417 28.9056 68.271 29.4006 68.841 30.0012C69.4307 30.605 69.8415 31.3111 70.0732 32.1195C70.328 32.9114 70.3741 33.8007 70.2116 34.7875C69.9777 36.2083 69.4406 37.3158 68.6005 38.1098C67.7603 38.9039 66.701 39.4288 65.4224 39.6845C66.0071 41.0577 66.6363 42.4686 67.3099 43.9173C67.9867 45.3463 68.7194 46.7439 69.5079 48.1101L70.7728 49.2913L70.6071 50.2978L65.6637 49.4838L64.5516 48.2974C63.8226 47.0626 63.2198 45.6762 62.7433 44.1384C62.2898 42.5841 61.9103 41.0723 61.6049 39.6032L59.2072 39.2084L58.057 46.1944ZM62.3444 29.3876C61.7326 29.2869 61.2295 29.2649 60.8351 29.3215L59.4753 37.5803L61.2218 37.8679C62.2282 38.0336 63.1451 37.8197 63.9725 37.2263C64.8032 36.6131 65.3355 35.596 65.5694 34.1752C65.6897 33.445 65.6933 32.8071 65.5805 32.2615C65.4709 31.6962 65.2661 31.2166 64.9661 30.8226C64.6661 30.4286 64.2923 30.1137 63.8447 29.8779C63.397 29.642 62.8969 29.4786 62.3444 29.3876Z" fill="#FF8A00"/>
<path d="M83.7873 48.568C84.7086 48.6783 85.5816 48.959 86.4065 49.4102L86.4186 50.5502L77.1491 50.6488L77.137 49.5089C77.455 49.3255 77.7933 49.1619 78.1518 49.018C78.5101 48.8542 78.8887 48.7202 79.2876 48.6159L79.1069 31.6369C78.6459 31.5418 78.2345 31.4162 77.8728 31.26C77.5311 31.1036 77.2194 30.9469 76.9378 30.7899L76.9256 29.65L92.6147 29.483C92.619 29.883 92.6037 30.3232 92.5688 30.8036C92.5337 31.264 92.4888 31.7445 92.4341 32.2451C92.3992 32.7255 92.3443 33.2061 92.2695 33.6869C92.2144 34.1476 92.1489 34.5783 92.0732 34.9791L90.8433 34.9922L89.4257 31.4671L83.606 31.529L83.69 39.4186L87.7997 39.3748L89.1251 37.0506L90.025 37.041C90.1106 37.5601 90.1664 38.1096 90.1926 38.6893C90.2387 39.2689 90.2649 39.8486 90.2711 40.4286C90.2575 41.0288 90.2336 41.6091 90.1996 42.1694C90.1856 42.7296 90.1509 43.23 90.0956 43.6706L89.1956 43.6802L87.8205 41.3247L83.7107 41.3685L83.7873 48.568Z" fill="#FF8A00"/>
<path d="M110.1 48.2489L100.849 49.6711L100.675 48.5443C101.399 47.9879 102.156 47.5782 102.945 47.3152L100.365 30.5324C99.9603 30.5338 99.5285 30.4889 99.0693 30.3977C98.6101 30.3064 98.1972 30.1877 97.8308 30.0417L97.6576 28.9149L106.909 27.4927L107.082 28.6195C106.76 28.8916 106.393 29.1402 105.983 29.3652C105.589 29.5674 105.199 29.7285 104.813 29.8486L107.393 46.6314C107.8 46.6497 108.222 46.6961 108.658 46.7707C109.115 46.8422 109.537 46.9593 109.927 47.1221L110.1 48.2489Z" fill="#FF8A00"/>
<path d="M124.823 22.6425L131.903 20.3574L132.253 21.4423C131.984 21.8445 131.667 22.2305 131.303 22.6002C130.933 22.9508 130.576 23.2447 130.232 23.4817L136.036 41.4682L133.61 42.2514L118.832 30.9434L116.981 29.1136L116.895 29.1412L117.889 31.3423L121.732 43.2477C122.143 43.22 122.614 43.2466 123.144 43.3276C123.688 43.3834 124.158 43.4733 124.555 43.5973L124.906 44.6822L117.854 46.958L117.504 45.8731C117.772 45.5341 118.076 45.205 118.414 44.8857C118.766 44.5412 119.138 44.2317 119.533 43.9571L114.502 28.3688C114.073 28.3394 113.637 28.291 113.195 28.2235C112.753 28.156 112.345 28.0667 111.973 27.9556L111.632 26.8993L117.799 24.9091L129.826 34.1415L131.932 36.173L132.046 36.1361L131.111 33.7269L128.033 24.1912C127.527 24.1863 127.022 24.1499 126.516 24.0818C126.024 23.9885 125.576 23.8704 125.173 23.7274L124.823 22.6425Z" fill="#FF8A00"/>
<path d="M160.368 27.3608C160.116 27.73 159.785 28.1428 159.375 28.5994C158.965 29.056 158.519 29.5097 158.038 29.9604C157.556 30.4112 157.06 30.8358 156.549 31.2341C156.038 31.6324 155.564 31.953 155.127 32.1959C153.624 33.0315 152.171 33.5873 150.768 33.8634C149.373 34.1124 148.038 34.0767 146.762 33.7564C145.493 33.4089 144.31 32.7622 143.212 31.8164C142.114 30.8706 141.128 29.611 140.254 28.0377C139.302 26.3245 138.757 24.7278 138.621 23.2476C138.493 21.7402 138.657 20.3677 139.113 19.1302C139.577 17.8655 140.271 16.7475 141.196 15.776C142.12 14.8045 143.168 13.9933 144.339 13.3423C145.493 12.7011 146.621 12.1773 147.722 11.7711C148.823 11.3649 149.754 11.1453 150.513 11.1121C150.659 11.3743 150.831 11.7249 151.029 12.1639C151.235 12.5757 151.443 13.0322 151.653 13.5333C151.863 14.0344 152.055 14.5453 152.23 15.0659C152.423 15.5767 152.573 16.0536 152.682 16.4965L151.607 17.094L147.923 13.9244C147.683 13.9439 147.36 14.0431 146.956 14.2218C146.542 14.3832 146.143 14.5707 145.759 14.7844C145.042 15.1828 144.429 15.7064 143.92 16.3554C143.411 17.0043 143.078 17.7843 142.921 18.6954C142.754 19.589 142.799 20.6166 143.056 21.7782C143.303 22.9223 143.82 24.2024 144.607 25.6184C145.248 26.7721 145.967 27.7569 146.764 28.5726C147.568 29.3612 148.404 29.9603 149.273 30.37C150.141 30.7797 151.023 30.9874 151.919 30.9931C152.814 30.9987 153.673 30.7732 154.494 30.3166C154.757 30.1708 155.018 30.0028 155.278 29.8123C155.529 29.6044 155.757 29.3975 155.963 29.1916C156.169 28.9856 156.335 28.7904 156.461 28.6058C156.605 28.4115 156.692 28.26 156.723 28.1512L153.983 23.2214C153.509 23.4391 153.032 23.5897 152.552 23.6734C152.073 23.757 151.605 23.7998 151.148 23.8018L150.594 22.8054L157.753 18.8266L158.307 19.8231C158.237 20.0679 158.11 20.333 157.925 20.6186C157.731 20.8867 157.457 21.1762 157.104 21.4871L160.368 27.3608Z" fill="#FF8A00"/>
</svg>
